<svg width="239" height="71" viewBox="0 0 239 71" fill="none" xmlns="http://www.w3.org/2000/svg">
<g clip-path="url(#clip0_7_336)">
<path d="M230.557 70.3534H9.85709C7.65129 70.3482 5.53813 69.4692 3.97847 67.9091C2.41998 66.349 1.54282 64.2346 1.53931 62.0291V8.31154C1.54282 6.10725 2.41998 3.99427 3.97963 2.43611C5.53929 0.877957 7.65247 0.00186051 9.85709 6.1004e-08H230.557C232.774 -0.000266221 234.902 0.871213 236.482 2.42628C238.061 3.98133 238.965 6.09523 239 8.31154V62.0291C238.967 64.247 238.063 66.3632 236.484 67.9205C234.904 69.4778 232.776 70.3516 230.557 70.3534Z" fill="#292C3E"/>
<path d="M237.301 62.0284C237.301 62.9136 237.126 63.79 236.787 64.6077C236.449 65.4253 235.952 66.1682 235.325 66.7938C234.698 67.4193 233.955 67.9153 233.138 68.2533C232.32 68.5914 231.442 68.7651 230.557 68.764H9.85605C8.06772 68.7663 6.35092 68.058 5.08443 66.7949C3.81676 65.5316 3.1038 63.8172 3.10144 62.0284V8.30807C3.1038 6.51828 3.81678 4.80256 5.08327 3.53779C6.34976 2.273 8.06654 1.5626 9.85605 1.5626H230.555C231.44 1.56278 232.318 1.7374 233.138 2.07649C233.955 2.41558 234.698 2.91251 235.325 3.53888C235.952 4.16526 236.447 4.90882 236.787 5.72712C237.124 6.54542 237.299 7.42243 237.299 8.30807V62.0284H237.301Z" fill="#292C3E"/>
<path d="M54.5362 34.7964C54.5586 33.0766 55.0147 31.3903 55.8637 29.8946C56.7127 28.3988 57.9264 27.1423 59.3922 26.2414C58.4612 24.9123 57.2333 23.8184 55.805 23.0466C54.3779 22.2748 52.7889 21.8464 51.1672 21.7951C47.7065 21.4307 44.3503 23.865 42.5831 23.865C40.7842 23.865 38.0719 21.8303 35.146 21.895C33.2545 21.956 31.4123 22.5058 29.7963 23.491C28.1814 24.4761 26.8482 25.863 25.9288 27.5163C21.9416 34.4109 24.9156 44.5558 28.735 50.1334C30.6442 52.8645 32.8781 55.9151 35.7991 55.8067C38.6571 55.6886 39.7253 53.9846 43.1742 53.9846C46.5926 53.9846 47.594 55.8067 50.5749 55.7378C53.6426 55.6886 55.5729 52.9941 57.4163 50.2375C58.7895 48.2918 59.846 46.141 60.5462 43.865C58.7648 43.1109 57.2438 41.8486 56.1756 40.2359C55.1062 38.623 54.5362 36.7312 54.5362 34.7964Z" fill="white"/>
<path d="M48.9058 18.1263C50.5792 16.1194 51.4025 13.5395 51.2032 10.9348C48.6467 11.2027 46.285 12.4235 44.5893 14.3539C43.76 15.2968 43.1257 16.3937 42.7211 17.5822C42.3165 18.7705 42.1501 20.0268 42.2322 21.2796C43.5103 21.2936 44.7756 21.017 45.9318 20.4709C47.0882 19.9247 48.1048 19.1229 48.9058 18.1263Z" fill="white"/>
<path d="M95.9043 55.4105H91.909L89.7208 48.5356H82.1147L80.0309 55.4105H76.1412L83.6768 32.0096H88.3311L95.9043 55.4105ZM89.0628 45.6511L87.0835 39.5387C86.8746 38.9141 86.4806 37.444 85.9037 35.1291H85.8368C85.6058 36.1243 85.2352 37.5941 84.7251 39.5387L82.782 45.6511H89.0628Z" fill="white"/>
<path d="M115.283 46.7627C115.419 49.2468 114.585 51.6866 112.955 53.5672C112.302 54.2856 111.502 54.8556 110.61 55.2392C109.717 55.6226 108.752 55.8105 107.781 55.7904C106.84 55.8668 105.896 55.6844 105.051 55.2628C104.206 54.8413 103.493 54.1964 102.989 53.3984H102.918V62.2867H99.168V44.0877C99.168 42.2829 99.121 40.4309 99.0273 38.5313H102.326L102.535 41.2048H102.605C103.174 40.3347 103.937 39.6097 104.836 39.0872C105.734 38.5648 106.742 38.2591 107.779 38.1949C108.817 38.1306 109.855 38.3095 110.81 38.7173C111.766 39.125 112.614 39.7503 113.285 40.5434C114.681 42.3066 115.391 44.5161 115.283 46.7627ZM111.462 46.9033C111.521 45.4668 111.133 44.0475 110.351 42.8411C109.989 42.3131 109.5 41.8838 108.93 41.5927C108.361 41.3014 107.726 41.1573 107.086 41.1738C106.164 41.1734 105.273 41.4993 104.568 42.094C103.818 42.7058 103.298 43.5549 103.094 44.5014C102.991 44.8746 102.932 45.2585 102.919 45.6454V48.4596C102.886 49.6013 103.289 50.7129 104.045 51.5692C104.41 51.9836 104.862 52.3123 105.37 52.5312C105.878 52.7501 106.427 52.8541 106.979 52.8356C107.622 52.8614 108.261 52.7255 108.837 52.4404C109.414 52.1552 109.908 51.7297 110.278 51.2033C111.121 49.9293 111.536 48.4194 111.462 46.8934V46.9033Z" fill="white"/>
<path d="M134.695 46.7627C134.831 49.247 133.996 51.6873 132.366 53.5672C131.713 54.2857 130.913 54.856 130.021 55.2394C129.129 55.623 128.165 55.8108 127.194 55.7904C126.253 55.8657 125.31 55.6827 124.467 55.261C123.624 54.8395 122.912 54.1953 122.408 53.3984H122.338V62.2867H118.58V44.0877C118.58 42.2829 118.533 40.4309 118.441 38.5313H121.736L121.946 41.2048H122.017C122.586 40.3347 123.35 39.6097 124.248 39.0872C125.146 38.5646 126.155 38.2591 127.191 38.1949C128.229 38.1306 129.267 38.3095 130.223 38.7173C131.178 39.125 132.026 39.7503 132.698 40.5434C134.091 42.3079 134.801 44.5166 134.695 46.7627ZM130.875 46.9033C130.932 45.4667 130.544 44.0474 129.761 42.8411C129.399 42.3129 128.912 41.8836 128.342 41.5923C127.772 41.301 127.137 41.1571 126.498 41.1738C125.577 41.1736 124.684 41.4995 123.979 42.094C123.228 42.7056 122.708 43.5547 122.504 44.5014C122.402 44.8748 122.344 45.2585 122.329 45.6454V48.4596C122.299 49.6009 122.701 50.7118 123.455 51.5692C123.821 51.9836 124.275 52.3119 124.783 52.5308C125.29 52.7499 125.839 52.8538 126.393 52.8356C127.035 52.8614 127.673 52.7255 128.25 52.4404C128.826 52.1552 129.322 51.7297 129.691 51.2033C130.534 49.9291 130.949 48.4194 130.875 46.8934V46.9033Z" fill="white"/>
<path d="M156.401 48.8489C156.432 49.762 156.262 50.6706 155.902 51.5107C155.543 52.3507 155.004 53.1018 154.322 53.7103C152.529 55.1687 150.253 55.8999 147.947 55.7591C145.826 55.8595 143.722 55.3539 141.88 54.3013L142.749 51.1763C144.383 52.1687 146.259 52.6867 148.17 52.672C149.348 52.7424 150.514 52.4044 151.472 51.7152C151.855 51.4108 152.161 51.0206 152.365 50.5764C152.569 50.1321 152.666 49.646 152.649 49.1571C152.658 48.7131 152.577 48.272 152.41 47.8608C152.243 47.4493 151.993 47.0765 151.677 46.7651C150.736 45.9457 149.638 45.3295 148.447 44.9556C144.349 43.4276 142.3 41.1902 142.302 38.2439C142.279 37.3439 142.462 36.4505 142.835 35.6313C143.208 34.8118 143.762 34.0881 144.457 33.5148C146.077 32.217 148.118 31.5579 150.191 31.6617C152.025 31.5976 153.849 31.9791 155.503 32.7733L154.572 35.8321C153.193 35.0998 151.652 34.7294 150.091 34.7557C148.977 34.6887 147.877 35.035 147.002 35.7281C146.702 35.993 146.464 36.3194 146.302 36.6852C146.141 37.0509 146.06 37.4473 146.066 37.8472C146.056 38.286 146.149 38.721 146.335 39.1186C146.522 39.516 146.797 39.8651 147.14 40.1392C148.172 40.9189 149.322 41.5288 150.545 41.9459C152.227 42.5385 153.749 43.5123 154.991 44.791C155.95 45.9205 156.453 47.3677 156.401 48.8489Z" fill="white"/>
<path d="M168.801 41.3459H164.668V49.5407C164.668 51.625 165.397 52.6668 166.856 52.6657C167.416 52.6778 167.976 52.6191 168.521 52.4913L168.625 55.3391C167.686 55.6486 166.699 55.7915 165.71 55.7613C165.067 55.7966 164.425 55.694 163.826 55.4604C163.226 55.2266 162.685 54.8671 162.236 54.4063C161.276 53.0933 160.832 51.4745 160.984 49.8559V41.3374H158.521V38.5234H160.984V35.4278L164.669 34.3162V38.5234H168.802V41.3374L168.801 41.3459Z" fill="white"/>
<path d="M187.456 46.8335C187.547 49.1677 186.754 51.4499 185.234 53.2232C184.451 54.0771 183.491 54.7495 182.423 55.1935C181.351 55.6373 180.199 55.8417 179.04 55.7923C177.934 55.8413 176.829 55.646 175.807 55.22C174.785 54.7943 173.867 54.1484 173.123 53.3286C171.624 51.6118 170.836 49.3893 170.916 47.1121C170.821 44.7586 171.635 42.4583 173.19 40.6889C173.968 39.8521 174.92 39.1948 175.978 38.7627C177.037 38.3307 178.176 38.1343 179.318 38.1871C180.433 38.1415 181.545 38.3384 182.575 38.7643C183.607 39.1901 184.534 39.8348 185.291 40.6537C186.775 42.3626 187.549 44.5731 187.456 46.8335ZM183.566 46.9546C183.606 45.5526 183.258 44.1665 182.56 42.9502C182.244 42.3318 181.761 41.8147 181.165 41.4576C180.57 41.1007 179.886 40.9182 179.191 40.931C178.486 40.9118 177.79 41.0913 177.182 41.4495C176.572 41.8076 176.077 42.3295 175.753 42.9557C175.047 44.1972 174.699 45.6094 174.747 47.0363C174.706 48.4379 175.054 49.8236 175.753 51.0393C176.081 51.6527 176.572 52.1649 177.17 52.5206C177.769 52.8763 178.453 53.0625 179.15 53.0588C179.846 53.0552 180.528 52.8621 181.122 52.5C181.718 52.1381 182.203 51.6208 182.525 51.0042C183.244 49.7776 183.602 48.3751 183.566 46.9546Z" fill="white"/>
<path d="M199.636 41.8285C199.245 41.7579 198.85 41.7229 198.453 41.7243C197.859 41.6971 197.269 41.8199 196.735 42.0812C196.2 42.3427 195.741 42.7342 195.398 43.2201C194.742 44.2048 194.414 45.3714 194.459 46.5533V55.4094H190.712L190.746 43.8475C190.746 41.9021 190.699 40.1311 190.606 38.5345H193.872L194.013 41.7638H194.116C194.472 40.7105 195.123 39.7822 195.992 39.0903C196.775 38.5045 197.726 38.1873 198.703 38.1855C199.016 38.184 199.329 38.2072 199.641 38.2544V41.8285H199.636Z" fill="white"/>
<path d="M216.416 46.1751C216.423 46.7454 216.376 47.3153 216.274 47.8762H205.034C205.008 48.594 205.143 49.3085 205.426 49.9688C205.706 50.6292 206.131 51.2196 206.668 51.6979C207.714 52.5177 209.018 52.9364 210.348 52.8784C211.901 52.899 213.444 52.6285 214.899 52.0806L215.486 54.6837C213.692 55.4172 211.766 55.7721 209.828 55.7263C208.697 55.7889 207.565 55.6159 206.503 55.2184C205.441 54.821 204.473 54.2076 203.661 53.4173C202.895 52.5852 202.305 51.6094 201.92 50.5465C201.536 49.4835 201.366 48.355 201.422 47.2263C201.34 44.9276 202.078 42.6746 203.509 40.8719C204.21 39.9891 205.111 39.2841 206.134 38.8138C207.161 38.3435 208.282 38.1211 209.409 38.1647C210.486 38.1052 211.558 38.3229 212.526 38.7968C213.493 39.2708 214.322 39.9855 214.934 40.8719C215.963 42.445 216.48 44.2971 216.416 46.1751ZM212.84 45.2028C212.89 44.1907 212.636 43.187 212.111 42.3198C211.801 41.8128 211.361 41.3992 210.834 41.1239C210.308 40.8485 209.716 40.7216 209.123 40.7564C208.538 40.7464 207.959 40.8802 207.438 41.1469C206.919 41.4134 206.472 41.8041 206.138 42.2847C205.5 43.1327 205.117 44.1442 205.034 45.2014H212.847L212.84 45.2028Z" fill="white"/>
<path d="M87.8198 17.6056C87.8832 18.4749 87.7483 19.3472 87.427 20.1569C87.1045 20.9668 86.6026 21.6931 85.9599 22.2812C84.5516 23.3296 82.816 23.8432 81.0641 23.7305C80.1635 23.7372 79.2629 23.6901 78.368 23.5897V12.2811C79.4177 12.1168 80.4789 12.0368 81.5426 12.0419C83.169 11.9235 84.7838 12.3895 86.0973 13.3562C86.6835 13.8908 87.1433 14.55 87.441 15.2854C87.7389 16.0208 87.8692 16.8135 87.8198 17.6056ZM85.8768 17.6561C85.9154 17.0952 85.8404 16.5321 85.6575 16.0005C85.4745 15.4688 85.1872 14.9792 84.8108 14.5606C84.391 14.1807 83.8985 13.8897 83.3637 13.705C82.8278 13.5202 82.2603 13.4456 81.6962 13.4856C81.1978 13.4781 80.7005 13.5181 80.2116 13.6052V22.2038C80.6243 22.2472 81.0407 22.2642 81.457 22.2545C82.0526 22.2923 82.6496 22.2076 83.2113 22.0052C83.7729 21.8029 84.2878 21.4874 84.7228 21.0782C85.1298 20.6116 85.4418 20.0691 85.6399 19.4819C85.837 18.8947 85.9178 18.2744 85.8756 17.6561H85.8768Z" fill="white"/>
<path d="M98.123 19.4116C98.1675 20.5581 97.7782 21.6796 97.0313 22.5508C96.6478 22.9706 96.1764 23.3013 95.6522 23.5202C95.1269 23.7389 94.5604 23.8402 93.9928 23.817C93.4487 23.8413 92.9059 23.7453 92.4028 23.536C91.9009 23.3264 91.4506 23.0088 91.0834 22.6055C90.3495 21.7617 89.9624 20.6703 90.0022 19.5522C89.9553 18.3971 90.3564 17.2687 91.1186 16.4004C91.5022 15.9899 91.97 15.6676 92.4896 15.4557C93.0102 15.2438 93.5696 15.1476 94.1302 15.1735C94.6778 15.1516 95.2242 15.2484 95.7308 15.4572C96.2374 15.6661 96.6935 15.9821 97.0664 16.3836C97.7888 17.2229 98.1665 18.3048 98.123 19.4116ZM96.2103 19.472C96.2303 18.7824 96.0592 18.1008 95.7168 17.5022C95.5607 17.2 95.3228 16.9476 95.0308 16.7734C94.7388 16.5993 94.4033 16.5105 94.0633 16.5172C93.7173 16.5073 93.3761 16.5943 93.0782 16.7683C92.7791 16.9424 92.5353 17.1966 92.3746 17.5022C92.0287 18.1112 91.8574 18.8043 91.881 19.5044C91.8609 20.194 92.0322 20.8756 92.3746 21.4744C92.5353 21.7766 92.7769 22.0285 93.0723 22.2024C93.3678 22.3761 93.7055 22.4651 94.0479 22.4592C94.3905 22.4615 94.7258 22.3681 95.0178 22.1896C95.3098 22.011 95.5467 21.7546 95.7015 21.4489C96.0498 20.8498 96.2245 20.165 96.2046 19.472H96.2103Z" fill="white"/>
<path d="M111.944 15.3351L109.349 23.6255H107.66L106.585 20.0248C106.318 19.1456 106.095 18.2534 105.919 17.3514H105.885C105.725 18.257 105.502 19.1504 105.217 20.0248L104.077 23.6255H102.369L99.9288 15.3351H101.824L102.761 19.2749C102.987 20.2073 103.175 21.0943 103.324 21.9357H103.358C103.494 21.2423 103.722 20.3611 104.041 19.2917L105.217 15.3351H106.719L107.844 19.2074C108.118 20.1519 108.339 21.0619 108.509 21.9371H108.56C108.698 21.0177 108.887 20.1065 109.123 19.2074L110.129 15.3351H111.938H111.944Z" fill="white"/>
<path d="M121.504 23.6253H119.66V18.8765C119.66 17.4132 119.103 16.6815 117.989 16.6815C117.736 16.6741 117.485 16.7246 117.254 16.8292C117.023 16.9338 116.819 17.0898 116.658 17.2851C116.321 17.6807 116.139 18.186 116.146 18.7062V23.6239H114.302V17.7031C114.302 16.9751 114.28 16.1843 114.236 15.3307H115.855L115.941 16.6266H115.991C116.216 16.2148 116.546 15.8696 116.947 15.6262C117.449 15.3159 118.028 15.1545 118.617 15.1604C118.973 15.1495 119.328 15.2104 119.658 15.3395C119.99 15.4686 120.293 15.6632 120.547 15.9118C120.886 16.2798 121.145 16.7137 121.31 17.1864C121.475 17.6591 121.54 18.1606 121.502 18.6598L121.504 23.6253Z" fill="white"/>
<path d="M126.585 23.6274H124.743V11.5267H126.585V23.6274Z" fill="white"/>
<path d="M137.435 19.4116C137.48 20.5581 137.09 21.6794 136.343 22.5506C135.96 22.9704 135.489 23.3012 134.964 23.5199C134.44 23.7388 133.873 23.8401 133.305 23.817C132.76 23.8416 132.217 23.7457 131.716 23.5362C131.212 23.327 130.762 23.009 130.396 22.6055C129.661 21.7617 129.275 20.6704 129.314 19.5522C129.268 18.3971 129.668 17.2687 130.432 16.4004C130.814 15.99 131.282 15.6677 131.801 15.4559C132.321 15.244 132.881 15.1476 133.442 15.1734C133.989 15.1511 134.536 15.2477 135.044 15.4566C135.55 15.6654 136.006 15.9817 136.379 16.3835C137.102 17.2231 137.479 18.305 137.435 19.4116ZM135.521 19.472C135.541 18.7824 135.37 18.1008 135.027 17.5022C134.871 17.2 134.634 16.9474 134.342 16.7733C134.05 16.5993 133.715 16.5105 133.375 16.5172C133.03 16.5068 132.688 16.5935 132.39 16.7677C132.091 16.9418 131.848 17.1962 131.686 17.5022C131.34 18.1112 131.169 18.8041 131.193 19.5044C131.173 20.194 131.344 20.8756 131.686 21.4742C131.848 21.7766 132.09 22.0285 132.384 22.2024C132.68 22.3761 133.017 22.4649 133.36 22.4592C133.702 22.4615 134.037 22.3679 134.329 22.1896C134.621 22.011 134.858 21.7546 135.012 21.4489C135.363 20.8506 135.54 20.1657 135.521 19.472Z" fill="white"/>
<path d="M146.365 23.625H144.705L144.564 22.6696H144.514C144.235 23.0449 143.869 23.3457 143.446 23.5452C143.024 23.7448 142.558 23.837 142.091 23.8136C141.741 23.8281 141.391 23.7687 141.065 23.6394C140.739 23.5098 140.444 23.3133 140.199 23.0622C139.985 22.8374 139.818 22.5725 139.706 22.2827C139.595 21.993 139.542 21.6839 139.55 21.3738C139.533 20.9086 139.641 20.4473 139.863 20.0388C140.086 19.6303 140.416 19.2898 140.817 19.0535C141.911 18.4603 143.15 18.1886 144.392 18.2697V18.115C144.392 17.0231 143.819 16.4772 142.671 16.4772C141.905 16.4626 141.152 16.6761 140.508 17.0906L140.134 15.8806C141 15.3789 141.988 15.1312 142.987 15.1658C145.154 15.1658 146.239 16.3088 146.241 18.5947V21.6481C146.232 22.3092 146.273 22.9702 146.365 23.625ZM144.451 20.7758V19.4954C142.417 19.4597 141.401 20.0168 141.399 21.1668C141.385 21.3449 141.41 21.5236 141.471 21.6912C141.532 21.859 141.628 22.0117 141.752 22.1392C142 22.3586 142.322 22.4744 142.653 22.4628C143.06 22.4613 143.456 22.3264 143.779 22.0788C143.988 21.9317 144.158 21.7362 144.274 21.509C144.391 21.2816 144.45 21.0297 144.447 20.7743L144.451 20.7758Z" fill="white"/>
<path d="M156.834 23.6252H155.198L155.113 22.294H155.061C154.817 22.7827 154.434 23.1881 153.96 23.4586C153.485 23.7291 152.942 23.8527 152.397 23.8137C151.92 23.8214 151.447 23.7192 151.015 23.5152C150.583 23.3112 150.204 23.0109 149.906 22.6374C149.221 21.7715 148.871 20.6873 148.921 19.5841C148.866 18.4025 149.249 17.2423 149.996 16.3253C150.312 15.9556 150.705 15.6599 151.147 15.4592C151.589 15.2586 152.071 15.1579 152.556 15.1645C153.011 15.119 153.47 15.1999 153.883 15.3985C154.294 15.5971 154.644 15.9057 154.892 16.2901H154.927V11.5301H156.772V21.3921C156.77 22.1989 156.791 22.9432 156.834 23.6252ZM154.923 20.1287V18.7454C154.927 18.5506 154.91 18.3557 154.872 18.1644C154.774 17.7308 154.541 17.3396 154.205 17.0471C153.865 16.7479 153.425 16.5868 152.973 16.5955C152.655 16.585 152.341 16.6545 152.057 16.7976C151.774 16.9408 151.531 17.1529 151.352 17.4144C150.937 18.0335 150.731 18.7681 150.761 19.5124C150.727 20.2213 150.924 20.9221 151.324 21.5088C151.503 21.7684 151.744 21.9792 152.025 22.1219C152.307 22.2646 152.62 22.335 152.935 22.3264C153.214 22.3354 153.491 22.2781 153.744 22.1596C153.998 22.041 154.219 21.8644 154.392 21.6439C154.747 21.2205 154.936 20.6816 154.923 20.1287Z" fill="white"/>
<path d="M172.598 19.4116C172.642 20.5583 172.252 21.6796 171.505 22.5508C171.121 22.9707 170.651 23.3019 170.127 23.5204C169.601 23.7393 169.035 23.8406 168.467 23.817C167.923 23.8411 167.38 23.7448 166.877 23.5355C166.375 23.3261 165.924 23.0087 165.558 22.6057C164.824 21.7618 164.437 20.6705 164.476 19.5524C164.431 18.3968 164.832 17.2683 165.597 16.4005C165.979 15.9898 166.447 15.6675 166.968 15.4556C167.488 15.2438 168.048 15.1475 168.609 15.1735C169.157 15.1511 169.702 15.2476 170.209 15.4566C170.715 15.6655 171.17 15.9818 171.543 16.3836C172.264 17.2234 172.641 18.3054 172.598 19.4116ZM170.687 19.4722C170.707 18.7826 170.536 18.1008 170.193 17.5022C170.036 17.2005 169.798 16.9484 169.506 16.7744C169.214 16.6004 168.879 16.5114 168.539 16.5173C168.193 16.5078 167.852 16.595 167.554 16.769C167.256 16.9431 167.012 17.197 166.85 17.5022C166.504 18.1114 166.333 18.8043 166.357 19.5044C166.337 20.194 166.506 20.8757 166.85 21.4744C167.012 21.7755 167.254 22.0268 167.547 22.2015C167.841 22.3761 168.178 22.4673 168.519 22.4654C168.861 22.4635 169.197 22.3686 169.489 22.1908C169.781 22.0129 170.019 21.7591 170.178 21.456C170.53 20.8553 170.707 20.1683 170.691 19.4722H170.687Z" fill="white"/>
<path d="M182.509 23.6253H180.668V18.8765C180.668 17.4132 180.111 16.6814 178.995 16.6814C178.743 16.6739 178.491 16.7243 178.259 16.8289C178.029 16.9337 177.826 17.0896 177.665 17.2851C177.326 17.6804 177.144 18.1859 177.153 18.7063V23.624H175.31V17.7029C175.31 16.975 175.289 16.1843 175.246 15.3307H176.858L176.945 16.6266H177C177.225 16.2156 177.554 15.8707 177.955 15.6261C178.457 15.3158 179.037 15.1543 179.629 15.1604C179.984 15.1497 180.338 15.2107 180.668 15.3398C180.999 15.4689 181.302 15.6634 181.557 15.9118C181.895 16.2796 182.156 16.7135 182.321 17.1863C182.483 17.6591 182.549 18.1608 182.513 18.6598L182.509 23.6253Z" fill="white"/>
<path d="M194.917 16.7178H192.887V20.7448C192.887 21.7691 193.247 22.28 193.961 22.28C194.238 22.2864 194.515 22.2576 194.783 22.1941L194.832 23.5928C194.369 23.7447 193.884 23.8143 193.398 23.7982C193.084 23.8158 192.769 23.7653 192.475 23.6506C192.18 23.5358 191.915 23.359 191.694 23.1327C191.222 22.4881 191.003 21.6922 191.08 20.8969V16.7178H189.868V15.3375H191.08V13.8178L192.887 13.2719V15.3347H194.917V16.7164V16.7178Z" fill="white"/>
<path d="M204.677 23.6252H202.838V18.9087C202.838 17.4229 202.282 16.6794 201.169 16.6785C200.774 16.6644 200.384 16.7845 200.065 17.0192C199.745 17.2538 199.515 17.5895 199.411 17.9715C199.35 18.1873 199.321 18.4105 199.324 18.6342V23.621H197.476V11.5301H199.321V16.5265H199.355C199.61 16.0969 199.975 15.7436 200.414 15.5038C200.852 15.2639 201.347 15.1462 201.846 15.1631C202.197 15.1521 202.546 15.2132 202.873 15.3425C203.198 15.4717 203.495 15.6663 203.744 15.9144C204.077 16.292 204.333 16.7324 204.492 17.21C204.653 17.6875 204.717 18.1923 204.681 18.6948L204.677 23.6252Z" fill="white"/>
<path d="M214.743 19.0888C214.747 19.3688 214.724 19.6488 214.674 19.9245H209.146C209.134 20.2769 209.199 20.6276 209.338 20.9518C209.477 21.2759 209.683 21.566 209.946 21.8015C210.46 22.2041 211.103 22.4097 211.756 22.3813C212.52 22.3913 213.278 22.2582 213.992 21.9887L214.281 23.2691C213.399 23.629 212.45 23.8034 211.499 23.7814C210.943 23.8122 210.388 23.7272 209.866 23.532C209.345 23.3368 208.87 23.0355 208.47 22.6473C208.095 22.2382 207.804 21.7584 207.615 21.2354C207.426 20.7126 207.345 20.1574 207.372 19.6024C207.331 18.4728 207.694 17.3656 208.398 16.4801C208.742 16.0462 209.184 15.6997 209.686 15.4687C210.192 15.2376 210.743 15.1286 211.295 15.1504C211.823 15.1212 212.35 15.2282 212.824 15.461C213.299 15.6939 213.706 16.0448 214.005 16.4801C214.518 17.2511 214.776 18.1635 214.743 19.0888ZM212.977 18.6117C213.003 18.1149 212.878 17.6217 212.62 17.1963C212.468 16.9472 212.251 16.7442 211.993 16.6089C211.735 16.4736 211.444 16.411 211.151 16.428C210.864 16.4233 210.58 16.4893 210.325 16.6204C210.069 16.7515 209.851 16.9435 209.686 17.1794C209.373 17.5967 209.182 18.0936 209.139 18.6133H212.977V18.6117Z" fill="white"/>
</g>
<defs>
<clipPath id="clip0_7_336">
<rect width="239" height="71" fill="white"/>
</clipPath>
</defs>
</svg>
