<svg width="236" height="70" viewBox="0 0 236 70" fill="none" xmlns="http://www.w3.org/2000/svg">
<g clip-path="url(#clip0_7_324)">
<path fill-rule="evenodd" clip-rule="evenodd" d="M226.728 69.3625H8.72357C6.41699 69.3613 4.20463 68.4487 2.57001 66.8241C0.935362 65.1994 0.0113839 62.9949 0 60.692V8.6703C0.00845961 6.36665 0.931502 4.16037 2.56677 2.53508C4.20205 0.909795 6.4161 -0.00184884 8.72357 2.81518e-06H226.728C229.035 -0.00111671 231.249 0.910765 232.884 2.5359C234.519 4.16102 235.443 6.36689 235.451 8.6703V60.692C235.441 62.9945 234.516 65.1989 232.881 66.8234C231.246 68.4477 229.035 69.3606 226.728 69.3625Z" fill="#292C3E"/>
<path fill-rule="evenodd" clip-rule="evenodd" d="M226.728 1.38725C228.667 1.38758 230.524 2.15363 231.899 3.51803C233.272 4.88241 234.05 6.73424 234.061 8.66892V60.6907C234.054 62.627 233.277 64.4816 231.904 65.8475C230.529 67.2131 228.667 67.9785 226.728 67.9751H8.72357C6.78519 67.9751 4.92561 67.2091 3.55134 65.8444C2.17707 64.4797 1.39983 62.6273 1.38955 60.692V8.6703C1.39617 6.73402 2.17223 4.8795 3.5473 3.51398C4.92238 2.14845 6.78406 1.38356 8.72357 1.38725H226.728ZM226.728 0H8.72357C6.41699 0.00107182 4.20463 0.913657 2.57001 2.53832C0.935362 4.16297 0.0113839 6.36758 0 8.6703V60.692C0.00845961 62.9957 0.931502 65.2021 2.56677 66.8273C4.20205 68.4527 6.4161 69.3642 8.72357 69.3625H226.728C229.035 69.3635 231.249 68.4516 232.884 66.8266C234.519 65.2014 235.443 62.9956 235.451 60.692V8.6703C235.441 6.3678 234.516 4.16362 232.881 2.53912C231.246 0.914622 229.035 0.0018006 226.728 0Z" fill="#292C3E"/>
<path d="M124.041 22.9458C123.306 22.9634 122.575 22.8277 121.896 22.547C121.216 22.2663 120.603 21.847 120.095 21.3159C119.579 20.7912 119.171 20.1694 118.898 19.4863C118.624 18.8032 118.489 18.0726 118.502 17.3371C118.483 16.6014 118.615 15.8696 118.89 15.1864C119.163 14.5032 119.574 13.8828 120.095 13.3628C120.602 12.8317 121.215 12.4124 121.893 12.1317C122.572 11.8509 123.303 11.7151 124.037 11.7327C124.772 11.7188 125.502 11.8563 126.181 12.1368C126.86 12.4173 127.474 12.8346 127.983 13.3628C129.007 14.4335 129.578 15.8566 129.578 17.3366C129.578 18.8163 129.007 20.2396 127.983 21.3104C127.478 21.8438 126.866 22.2651 126.187 22.547C125.507 22.8287 124.777 22.9646 124.041 22.9458ZM77.2569 22.9458C76.522 22.9566 75.7923 22.8198 75.1115 22.5432C74.4307 22.2668 73.8126 21.8564 73.294 21.3365C72.4979 20.5549 71.9535 19.5542 71.7304 18.4621C71.507 17.3699 71.6151 16.2362 72.0406 15.2057C72.4659 14.1752 73.1893 13.2948 74.1186 12.6769C75.0477 12.059 76.1405 11.7317 77.2569 11.7369C78.0186 11.7355 78.7719 11.8914 79.4703 12.1946C80.1186 12.4584 80.696 12.8704 81.1558 13.3975L81.2601 13.5222L80.086 14.6723L79.9651 14.5336C79.6323 14.1415 79.2131 13.8317 78.7404 13.6282C78.2677 13.4249 77.7542 13.3335 77.2401 13.3613C76.7361 13.3555 76.2363 13.4508 75.7699 13.6414C75.3034 13.832 74.8803 14.1142 74.5249 14.4711C73.7904 15.2507 73.3815 16.2807 73.3815 17.3511C73.3815 18.4214 73.7904 19.4515 74.5249 20.2309C75.2647 20.9413 76.2511 21.3379 77.2776 21.3379C78.304 21.3379 79.2906 20.9413 80.0304 20.2309C80.492 19.7368 80.7726 19.1011 80.8266 18.4276H77.0624V16.81H82.4425L82.4648 16.9571C82.5096 17.226 82.5354 17.4976 82.5428 17.7701C82.5737 18.4278 82.4708 19.0849 82.2401 19.7018C82.0094 20.3186 81.6555 20.8824 81.2003 21.3589C80.6898 21.8846 80.0748 22.2974 79.3945 22.5707C78.7143 22.8442 77.9842 22.972 77.2514 22.9458H77.2569ZM139.461 22.7169H137.798L132.718 14.6002L132.761 16.0623V22.7128H131.101V11.9671H132.995L133.046 12.0491L137.823 19.6942L137.779 18.2362V11.9657H139.456L139.461 22.7169ZM111.574 22.7169H109.894V13.5833H106.976V11.9657H114.48V13.5833H111.562V22.7169H111.574ZM105.611 22.7169H103.935V11.9671H105.611V22.7169ZM96.1895 22.7169H94.5136V13.5833H91.5956V11.9657H99.0992V13.5833H96.181L96.1895 22.7169ZM90.5367 22.7003H84.1086V11.9671H90.5367V13.5847H85.7902V16.5339H90.0741V18.1336H85.7902V21.0828H90.5367V22.7003ZM121.325 20.2034C121.677 20.5653 122.1 20.8518 122.566 21.0451C123.033 21.2383 123.534 21.3343 124.04 21.327C124.546 21.3403 125.05 21.2471 125.518 21.0534C125.986 20.86 126.408 20.5703 126.757 20.2034C127.469 19.4192 127.863 18.3989 127.863 17.3405C127.863 16.2824 127.469 15.262 126.757 14.478C126.405 14.1163 125.982 13.8301 125.515 13.6368C125.049 13.4436 124.546 13.3475 124.041 13.3543C123.535 13.341 123.033 13.4341 122.566 13.6277C122.098 13.8214 121.678 14.1111 121.331 14.478C120.618 15.2616 120.224 16.2812 120.223 17.3392C120.22 18.397 120.613 19.4177 121.323 20.2034H121.325Z" fill="white"/>
<path fill-rule="evenodd" clip-rule="evenodd" d="M118.338 37.7203C116.878 37.7245 115.452 38.1609 114.239 38.9741C113.027 39.7875 112.083 40.9413 111.528 42.2897C110.972 43.638 110.828 45.1206 111.116 46.5503C111.404 47.9799 112.109 49.2925 113.144 50.3218C114.178 51.3515 115.495 52.0518 116.928 52.3346C118.36 52.6175 119.845 52.4703 121.194 51.9111C122.543 51.3522 123.696 50.4067 124.507 49.1938C125.317 47.9811 125.75 46.5556 125.75 45.0974C125.767 44.1225 125.585 43.1543 125.218 42.2506C124.851 41.3471 124.305 40.5268 123.613 39.8382C122.921 39.1498 122.098 38.6074 121.191 38.2434C120.286 37.8796 119.316 37.7017 118.338 37.7203ZM118.338 49.552C117.44 49.6167 116.541 49.4093 115.761 48.957C114.981 48.5047 114.355 47.8283 113.966 47.0161C113.576 46.2038 113.441 45.2932 113.577 44.4032C113.713 43.5129 114.115 42.6843 114.729 42.0251C115.344 41.3661 116.143 40.9068 117.023 40.7076C117.902 40.5082 118.821 40.578 119.661 40.9077C120.5 41.2375 121.221 41.812 121.729 42.5562C122.236 43.3006 122.508 44.1802 122.507 45.0809C122.536 45.6497 122.449 46.2186 122.253 46.7537C122.058 47.2888 121.757 47.7793 121.369 48.1965C120.98 48.6136 120.512 48.9491 119.992 49.1829C119.471 49.4166 118.909 49.544 118.338 49.5574V49.552ZM102.173 37.7203C100.712 37.7242 99.2855 38.1604 98.073 38.9736C96.8605 39.7866 95.9167 40.9403 95.3607 42.2887C94.8044 43.637 94.6611 45.1198 94.9486 46.5495C95.2361 47.9792 95.9415 49.2916 96.9758 50.3213C98.0101 51.351 99.3269 52.0517 100.76 52.3346C102.193 52.6176 103.677 52.4703 105.026 51.9113C106.375 51.3523 107.528 50.4067 108.339 49.194C109.15 47.9812 109.583 46.5556 109.583 45.0974C109.599 44.1225 109.418 43.1545 109.051 42.251C108.683 41.3475 108.138 40.5271 107.446 39.8387C106.755 39.1502 105.931 38.6077 105.025 38.2439C104.119 37.8799 103.149 37.7018 102.173 37.7203ZM102.173 49.552C101.273 49.6167 100.375 49.4093 99.5947 48.957C98.8147 48.5047 98.1893 47.8283 97.7997 47.0161C97.4102 46.2038 97.2747 45.2932 97.4108 44.4032C97.547 43.5129 97.9485 42.6843 98.5631 42.0251C99.1776 41.3661 99.9769 40.9068 100.857 40.7076C101.736 40.5082 102.656 40.578 103.495 40.9077C104.334 41.2375 105.055 41.812 105.562 42.5562C106.07 43.3006 106.342 44.1802 106.341 45.0809C106.369 45.6497 106.283 46.2186 106.087 46.7537C105.892 47.2888 105.591 47.7793 105.202 48.1965C104.814 48.6136 104.346 48.9491 103.825 49.1829C103.305 49.4166 102.743 49.544 102.173 49.5574V49.552ZM82.9317 39.9799V43.1028H90.4353C90.3242 44.5654 89.7263 45.9492 88.7373 47.034C87.9866 47.7999 87.0831 48.3995 86.0852 48.7944C85.0877 49.1893 84.0178 49.3702 82.9456 49.3258C80.7344 49.3258 78.6138 48.4489 77.0502 46.8879C75.4866 45.3271 74.6083 43.2098 74.6083 41.0022C74.6083 38.7949 75.4866 36.6776 77.0502 35.1168C78.6138 33.5558 80.7344 32.6787 82.9456 32.6787C85.0509 32.654 87.0816 33.4573 88.5983 34.915L90.8217 32.6955C89.7899 31.6724 88.5639 30.8657 87.2153 30.323C85.8668 29.7799 84.4231 29.5117 82.9692 29.534C81.4425 29.5004 79.9246 29.7717 78.5043 30.3317C77.0839 30.8917 75.7902 31.7295 74.6986 32.7955C73.607 33.8616 72.7396 35.1345 72.1476 36.5398C71.5553 37.9451 71.2502 39.4542 71.2502 40.9789C71.2502 42.5033 71.5553 44.0124 72.1476 45.4177C72.7396 46.8228 73.607 48.096 74.6986 49.162C75.7902 50.2281 77.0839 51.0657 78.5043 51.6259C79.9246 52.1859 81.4425 52.4571 82.9692 52.4237C84.4565 52.485 85.9397 52.2299 87.3208 51.6752C88.7016 51.1207 89.9485 50.2791 90.9787 49.2064C92.8071 47.214 93.7835 44.5871 93.6993 41.886C93.7074 41.2344 93.649 40.5838 93.5256 39.9439H82.9304L82.929 39.9785L82.9317 39.9799ZM161.632 42.4104C161.188 41.0728 160.343 39.9039 159.211 39.0629C158.078 38.2219 156.714 37.7498 155.304 37.7104C154.354 37.7167 153.416 37.9149 152.547 38.2932C151.676 38.6716 150.892 39.2222 150.241 39.9118C149.589 40.6014 149.085 41.4158 148.759 42.3053C148.431 43.195 148.289 44.1415 148.339 45.0877C148.317 46.0578 148.492 47.0224 148.85 47.9237C149.211 48.8252 149.749 49.6447 150.433 50.3334C151.119 51.0222 151.935 51.5659 152.835 51.9322C153.735 52.2985 154.7 52.4799 155.672 52.4652C156.889 52.4725 158.09 52.177 159.164 51.6055C160.239 51.0339 161.155 50.2043 161.828 49.1912L159.326 47.5141C158.951 48.1399 158.419 48.6572 157.783 49.0149C157.146 49.3729 156.427 49.559 155.696 49.5549C154.942 49.5829 154.198 49.3848 153.557 48.9863C152.918 48.5877 152.412 48.0067 152.107 47.3185L161.986 43.2317L161.628 42.4091L161.632 42.4104ZM151.555 44.8755C151.522 44.3392 151.595 43.8016 151.772 43.2938C151.948 42.7861 152.224 42.3184 152.583 41.9181C152.941 41.5179 153.377 41.193 153.863 40.9623C154.35 40.7318 154.876 40.6002 155.415 40.5751C155.974 40.5365 156.533 40.664 157.022 40.9418C157.51 41.2194 157.904 41.6348 158.156 42.1357L151.555 44.8755ZM143.53 52.024H146.778V30.3482H143.533L143.53 52.024ZM138.202 39.3668H138.086C137.592 38.8288 136.988 38.4029 136.317 38.1171C135.644 37.8314 134.918 37.6926 134.188 37.7104C132.282 37.7887 130.481 38.5995 129.161 39.9732C127.839 41.3471 127.102 43.1774 127.102 45.0815C127.102 46.9857 127.839 48.8158 129.161 50.1897C130.481 51.5635 132.282 52.3743 134.188 52.4527C134.92 52.4688 135.647 52.3271 136.32 52.0378C136.992 51.7484 137.594 51.3179 138.086 50.7754H138.202V51.8353C138.202 54.65 136.694 56.1677 134.265 56.1677C133.453 56.1484 132.666 55.8889 132.003 55.4224C131.34 54.9558 130.83 54.3033 130.539 53.5473L127.72 54.7236C128.254 56.0154 129.162 57.1197 130.325 57.8951C131.49 58.6706 132.86 59.0824 134.26 59.0781C138.063 59.0781 141.285 56.8421 141.285 51.3901V38.1529H138.219V39.3682L138.202 39.3668ZM134.477 49.559C133.355 49.4642 132.31 48.9522 131.548 48.1247C130.786 47.2971 130.364 46.214 130.364 45.0899C130.364 43.9658 130.786 42.8827 131.548 42.055C132.31 41.2274 133.355 40.7156 134.477 40.621C135.034 40.648 135.58 40.7868 136.082 41.0291C136.584 41.2715 137.032 41.6121 137.399 42.0311C137.768 42.4501 138.047 42.9387 138.22 43.4676C138.394 43.9965 138.46 44.555 138.414 45.1099C138.461 45.6632 138.396 46.2205 138.223 46.7479C138.048 47.2753 137.769 47.7619 137.399 48.1778C137.031 48.5938 136.582 48.9307 136.079 49.1678C135.576 49.405 135.03 49.5376 134.474 49.5574L134.477 49.559ZM176.822 30.3496H169.064V52.0226H172.309V43.8156H176.827C177.744 43.8666 178.661 43.7302 179.524 43.4149C180.386 43.0995 181.176 42.6117 181.843 41.9816C182.51 41.3514 183.042 40.592 183.404 39.7496C183.769 38.9072 183.957 37.9998 183.957 37.0826C183.957 36.1656 183.769 35.258 183.404 34.4158C183.042 33.5735 182.51 32.814 181.843 32.1838C181.176 31.5536 180.386 31.0658 179.524 30.7505C178.661 30.435 177.744 30.2986 176.827 30.3496H176.822ZM176.918 40.7887H172.306V33.3502H176.918C177.407 33.3502 177.893 33.4465 178.344 33.6333C178.796 33.8202 179.206 34.0941 179.553 34.4397C179.897 34.7849 180.172 35.195 180.36 35.6462C180.547 36.0975 180.643 36.5811 180.643 37.0696C180.643 37.5581 180.547 38.0416 180.36 38.4928C180.172 38.9439 179.897 39.354 179.553 39.6994C179.206 40.0448 178.796 40.3186 178.344 40.5056C177.893 40.6925 177.407 40.7887 176.918 40.7887ZM196.951 37.6882C195.769 37.6207 194.591 37.8978 193.563 38.486C192.535 39.074 191.699 39.9478 191.16 41.0009L194.036 42.194C194.32 41.6707 194.751 41.2413 195.275 40.9573C195.8 40.6736 196.395 40.5474 196.99 40.5945C197.814 40.5153 198.635 40.7649 199.275 41.2884C199.916 41.8117 200.321 42.5667 200.407 43.3886V43.6173C199.364 43.0707 198.204 42.7852 197.027 42.785C193.922 42.785 190.773 44.4802 190.773 47.6584C190.803 48.3285 190.967 48.9862 191.256 49.5921C191.545 50.1979 191.952 50.7399 192.453 51.1857C192.956 51.6313 193.542 51.9719 194.178 52.1869C194.816 52.4018 195.488 52.487 196.159 52.4373C196.974 52.485 197.787 52.3136 198.514 51.941C199.239 51.5685 199.851 51.0085 200.287 50.3191H200.403V51.9977H203.531V43.695C203.526 39.8273 200.65 37.6868 196.947 37.6868L196.951 37.6882ZM196.543 49.559C195.483 49.559 193.997 49.04 193.997 47.7082C193.997 46.0311 195.851 45.3943 197.431 45.3943C198.466 45.3627 199.487 45.6156 200.386 46.1254C200.272 47.0665 199.818 47.934 199.112 48.5657C198.402 49.1972 197.489 49.5498 196.54 49.5574L196.543 49.559ZM214.94 38.1515L211.215 47.5529H211.097L207.239 38.1515H203.748L209.541 51.2929L206.24 58.5968H209.618L218.527 38.1515H214.94ZM185.737 52.024H188.981V30.3482H185.737V52.024Z" fill="white"/>
<path fill-rule="evenodd" clip-rule="evenodd" d="M18.1246 13.0615C17.5602 13.7479 17.2772 14.6222 17.3326 15.5086V53.8522C17.2698 54.7361 17.5611 55.6089 18.1427 56.2785L18.2816 56.3949L39.8002 34.9121V34.432L18.2621 12.9449L18.1246 13.0615Z" fill="url(#paint0_linear_7_324)"/>
<path fill-rule="evenodd" clip-rule="evenodd" d="M46.9546 42.0961L39.7776 34.931V34.4289L46.9546 27.2638L47.1102 27.3594L55.6004 32.1773C58.0306 33.5438 58.0306 35.8009 55.6004 37.1854L47.1102 42.0032L46.9546 42.0961Z" fill="url(#paint1_linear_7_324)"/>
<path fill-rule="evenodd" clip-rule="evenodd" d="M47.1063 42.0003L39.7736 34.6799L18.1202 56.2974C18.6153 56.7323 19.2465 56.9817 19.9058 57.003C20.5649 57.0242 21.211 56.8159 21.7331 56.4139L47.1118 42.0003" fill="url(#paint2_linear_7_324)"/>
<path fill-rule="evenodd" clip-rule="evenodd" d="M47.1063 27.3637L21.7331 12.9737C21.2132 12.5665 20.5661 12.3549 19.9055 12.3762C19.2448 12.3974 18.6128 12.6503 18.1202 13.0903L39.7736 34.6855L47.1063 27.3637Z" fill="url(#paint3_linear_7_324)"/>
<path opacity="0.2" fill-rule="evenodd" clip-rule="evenodd" d="M46.952 41.846L21.7512 56.1415C21.2542 56.5247 20.6449 56.7338 20.0171 56.7369C19.3891 56.74 18.7779 56.5366 18.2773 56.1581L18.1383 56.2969L18.2773 56.4135C18.7784 56.7907 19.3894 56.9933 20.0171 56.9902C20.6447 56.9873 21.2537 56.7787 21.7512 56.3968L47.1299 42.0055L46.952 41.846Z" fill="black"/>
<path opacity="0.12" fill-rule="evenodd" clip-rule="evenodd" d="M55.6014 36.9339L46.9333 41.8462L47.0891 42.0015L55.5792 37.1837C56.0777 36.9672 56.5086 36.6214 56.8279 36.1823C57.147 35.7432 57.3423 35.2267 57.3938 34.6865C57.2973 35.1772 57.0841 35.6373 56.7722 36.0285C56.4602 36.4196 56.0587 36.73 55.6014 36.9339Z" fill="black"/>
<path opacity="0.25" fill-rule="evenodd" clip-rule="evenodd" d="M21.7295 13.2185L55.5968 32.4276C56.0556 32.6342 56.4592 32.9456 56.7746 33.3372C57.0899 33.7286 57.3082 34.189 57.4116 34.6806C57.3602 34.1405 57.1649 33.6241 56.8456 33.1848C56.5265 32.7458 56.0953 32.3999 55.5968 32.1836L21.7295 12.9688C19.2992 11.5816 17.3287 12.7399 17.3287 15.5116V15.7627C17.3287 12.9855 19.2992 11.8479 21.7295 13.2185Z" fill="white"/>
</g>
<defs>
<linearGradient id="paint0_linear_7_324" x1="72.8848" y1="57.9158" x2="70.259" y2="57.5487" gradientUnits="userSpaceOnUse">
<stop stop-color="#00A0FF"/>
<stop offset="0.007" stop-color="#00A1FF"/>
<stop offset="0.26" stop-color="#00BEFF"/>
<stop offset="0.512" stop-color="#00D2FF"/>
<stop offset="0.76" stop-color="#00DFFF"/>
<stop offset="1" stop-color="#00E3FF"/>
</linearGradient>
<linearGradient id="paint1_linear_7_324" x1="74.1862" y1="55.1339" x2="69.5984" y2="55.1339" gradientUnits="userSpaceOnUse">
<stop stop-color="#FFE000"/>
<stop offset="0.409" stop-color="#FFBD00"/>
<stop offset="0.775" stop-color="#FFA500"/>
<stop offset="1" stop-color="#FF9C00"/>
</linearGradient>
<linearGradient id="paint2_linear_7_324" x1="73.9578" y1="55.7991" x2="72.2073" y2="51.9767" gradientUnits="userSpaceOnUse">
<stop stop-color="#FF3A44"/>
<stop offset="1" stop-color="#C31162"/>
</linearGradient>
<linearGradient id="paint3_linear_7_324" x1="71.9183" y1="59.0711" x2="72.7081" y2="57.3691" gradientUnits="userSpaceOnUse">
<stop stop-color="#32A071"/>
<stop offset="0.068" stop-color="#2DA771"/>
<stop offset="0.476" stop-color="#15CF74"/>
<stop offset="0.801" stop-color="#06E775"/>
<stop offset="1" stop-color="#00F076"/>
</linearGradient>
<clipPath id="clip0_7_324">
<rect width="236" height="70" fill="white"/>
</clipPath>
</defs>
</svg>
